<svg width="299" height="52" viewBox="0 0 299 52" fill="none" xmlns="http://www.w3.org/2000/svg">
<path d="M26.528 51.06C20.7333 51.06 15.8927 49.9293 12.006 47.668C8.11933 45.336 5.25733 42.262 3.42 38.446C1.58267 34.5593 0.664 30.3193 0.664 25.726C0.664 20.5673 1.724 16.0447 3.844 12.158C6.03467 8.27133 9.038 5.30333 12.854 3.254C16.67 1.134 20.9807 0.0739983 25.786 0.0739983C33.2767 0.0739983 38.824 2.15866 42.428 6.328C46.1027 10.4267 47.94 16.2213 47.94 23.712C47.94 25.62 47.834 27.5987 47.622 29.648H12.642C13.4193 33.9587 14.9387 37.068 17.2 38.976C19.532 40.884 22.7473 41.838 26.846 41.838C30.238 41.838 33.0293 41.5553 35.22 40.99C37.4107 40.4247 39.4247 39.6473 41.262 38.658L44.76 46.82C42.9933 47.9507 40.5907 48.94 37.552 49.788C34.5133 50.636 30.8387 51.06 26.528 51.06ZM36.81 21.698C36.8807 17.3167 35.9267 14.2427 33.948 12.476C31.9693 10.6387 29.1427 9.72 25.468 9.72C18.048 9.72 13.7727 13.7127 12.642 21.698H36.81ZM52.204 1.346H65.242L75.736 23.288L79.128 32.086L82.52 23.288L92.908 1.346H105.628L80.082 50H77.856L52.204 1.346ZM134.702 51.06C128.907 51.06 124.066 49.9293 120.18 47.668C116.293 45.336 113.431 42.262 111.594 38.446C109.756 34.5593 108.838 30.3193 108.838 25.726C108.838 20.5673 109.898 16.0447 112.018 12.158C114.208 8.27133 117.212 5.30333 121.028 3.254C124.844 1.134 129.154 0.0739983 133.96 0.0739983C141.45 0.0739983 146.998 2.15866 150.602 6.328C154.276 10.4267 156.114 16.2213 156.114 23.712C156.114 25.62 156.008 27.5987 155.796 29.648H120.816C121.593 33.9587 123.112 37.068 125.374 38.976C127.706 40.884 130.921 41.838 135.02 41.838C138.412 41.838 141.203 41.5553 143.394 40.99C145.584 40.4247 147.598 39.6473 149.436 38.658L152.934 46.82C151.167 47.9507 148.764 48.94 145.726 49.788C142.687 50.636 139.012 51.06 134.702 51.06ZM144.984 21.698C145.054 17.3167 144.1 14.2427 142.122 12.476C140.143 10.6387 137.316 9.72 133.642 9.72C126.222 9.72 121.946 13.7127 120.816 21.698H144.984ZM167.798 1.346H179.246V10.886C180.377 7.63533 182.214 5.02066 184.758 3.042C187.302 1.06333 190.199 0.0739983 193.45 0.0739983C195.711 0.0739983 197.266 0.285998 198.114 0.709996L196.524 12.264C195.888 11.84 194.51 11.628 192.39 11.628C189.069 11.628 186.03 12.688 183.274 14.808C180.589 16.928 179.246 20.32 179.246 24.984V50H167.798V1.346ZM222.958 51.06C219.566 51.06 216.032 50.636 212.358 49.788C208.754 48.8693 206.174 47.8093 204.62 46.608L208.436 37.598C212.676 40.566 217.516 42.05 222.958 42.05C228.399 42.05 231.12 40.46 231.12 37.28C231.12 35.8667 230.554 34.7713 229.424 33.994C228.293 33.2167 226.279 32.298 223.382 31.238L219.354 29.754C215.114 28.058 211.757 26.044 209.284 23.712C206.81 21.3093 205.574 18.1647 205.574 14.278C205.574 9.826 207.305 6.36333 210.768 3.89C214.301 1.346 219 0.0739983 224.866 0.0739983C227.763 0.0739983 230.59 0.391998 233.346 1.028C236.172 1.664 238.328 2.47667 239.812 3.466L235.678 12.582C234.759 11.6633 233.275 10.886 231.226 10.25C229.247 9.54333 227.021 9.19 224.548 9.19C219.53 9.19 217.022 10.7093 217.022 13.748C217.022 15.444 217.693 16.7513 219.036 17.67C220.378 18.518 222.569 19.472 225.608 20.532C225.89 20.6027 226.986 20.9913 228.894 21.698C233.416 23.4647 236.773 25.4787 238.964 27.74C241.154 30.0013 242.25 32.8987 242.25 36.432C242.25 41.2373 240.412 44.8767 236.738 47.35C233.134 49.8233 228.54 51.06 222.958 51.06ZM277.139 51.06C271.345 51.06 266.504 49.9293 262.617 47.668C258.731 45.336 255.869 42.262 254.031 38.446C252.194 34.5593 251.275 30.3193 251.275 25.726C251.275 20.5673 252.335 16.0447 254.455 12.158C256.646 8.27133 259.649 5.30333 263.465 3.254C267.281 1.134 271.592 0.0739983 276.397 0.0739983C283.888 0.0739983 289.435 2.15866 293.039 6.328C296.714 10.4267 298.551 16.2213 298.551 23.712C298.551 25.62 298.445 27.5987 298.233 29.648H263.253C264.031 33.9587 265.55 37.068 267.811 38.976C270.143 40.884 273.359 41.838 277.457 41.838C280.849 41.838 283.641 41.5553 285.831 40.99C288.022 40.4247 290.036 39.6473 291.873 38.658L295.371 46.82C293.605 47.9507 291.202 48.94 288.163 49.788C285.125 50.636 281.45 51.06 277.139 51.06ZM287.421 21.698C287.492 17.3167 286.538 14.2427 284.559 12.476C282.581 10.6387 279.754 9.72 276.079 9.72C268.659 9.72 264.384 13.7127 263.253 21.698H287.421Z" fill="#F5F5F5"/>
</svg>
